# xmcd CD database file
#
# Track frame offsets:
#	150
#	3531
#	25806
#	50956
#	75772
#	105351
#	134751
#	149870
#	177079
#	199617
#	223768
#	240293
#	261907
#	287476
#	306200
#
# Disc length: 4389 seconds
#
# Revision: 0
# Processed by: cddbd v1.5PL3 Copyright (c) Steve Scherf et al.
# Submitted via: CDex 1.50Beta7
#
DISCID=d511230f
DTITLE=David Calzado Y su Charanga Habanera - Charangueando por 15 anos
DYEAR=2004
DGENRE=Salsa
TTITLE0=Opening
TTITLE1=De Pelicula
TTITLE2=Pa' que se entere
TTITLE3=Para el llanto
TTITLE4=La atmosfera
TTITLE5=Mi estrella
TTITLE6=A mi que
TTITLE7=El temba
TTITLE8=Abusadora
TTITLE9=El riki
TTITLE10=Vuelve
TTITLE11=La gorda
TTITLE12=El change
TTITLE13=Con dinero o sin dinero
TTITLE14=El popular
EXTD=YEAR: 2004
EXTT0=
EXTT1=
EXTT2=
EXTT3=
EXTT4=
EXTT5=
EXTT6=
EXTT7=
EXTT8=
EXTT9=
EXTT10=
EXTT11=
EXTT12=
EXTT13=
EXTT14=
PLAYORDER=
